<?xml version="1.0" encoding="UTF-8"?>
<svg width="100%" height="100%" viewBox="0 0 265 265" version="1.1" xmlns="http://www.w3.org/2000/svg" xmlns:xlink="http://www.w3.org/1999/xlink">
    <!-- Generator: Sketch 48.2 (47327) - http://www.bohemiancoding.com/sketch -->
    <title>Publishing + AI</title>
    <desc>Created with Sketch.</desc>
    <defs></defs>
    <g id="Homepage" stroke="none" stroke-width="1" fill="none" fill-rule="evenodd" transform="translate(0.000000, -957.000000)">
        <g id="Group-5" transform="translate(0.000000, 957.000000)" fill="#50D3A8" fill-rule="nonzero">
            <g id="noun_1464848_cc">
                <path d="M46.8626429,50.3270161 L39.8340714,45 C24.8983571,65.075 17,89 17,114.193548 L17,176.290323 C17,178.743145 18.9636071,180.725806 21.3928571,180.725806 L43.3571429,180.725806 L43.3571429,233.951613 C43.3571429,236.404435 45.32075,238.387097 47.75,238.387097 L122.428571,238.387097 L122.428571,265 L131.214286,265 L131.214286,238.387097 L140,238.387097 L140,229.516129 L126.821429,229.516129 L122.428571,229.516129 L52.1428571,229.516129 L52.1428571,220.339113 C69.4507143,218.143548 82.8928571,203.222581 82.8928571,185.16129 L74.1071429,185.16129 C74.1071429,198.321371 64.5878214,209.250403 52.1428571,211.375 L52.1428571,176.290323 C52.1428571,173.8375 50.17925,171.854839 47.75,171.854839 L25.7857143,171.854839 L25.7857143,114.193548 C25.7857143,90.9427419 33.0734643,68.8540323 46.8626429,50.3270161 Z" id="Shape"></path>
                <path d="M54,29.7158496 L59.9619638,36 C79.4511459,18.3041409 104.840964,8.56734888 131.452962,8.56734888 C132.863508,8.56734888 134.269673,8.5973346 135.667076,8.6487387 L136,0.0899571633 C134.488701,0.0299857211 132.977403,0 131.452962,0 C102.620012,0 75.1187563,10.5549738 54,29.7158496 Z" id="Shape"></path>
                <path d="M202.250273,23 L197,29.9945355 C204.965027,35.9748634 212.03388,43.0437158 218.005464,51 L225,45.7497268 C218.525683,37.1333333 210.87541,29.4830601 202.250273,23 Z" id="Shape"></path>
                <path d="M246,265 L246,115.562247 C246,114.032707 245.972263,112.516354 245.91679,111 L238,111.334037 C238.047548,112.736115 238.075285,114.146983 238.075285,115.562247 L238.075285,265 L246,265 Z" id="Shape"></path>
                <path d="M203.166667,44.1666667 C203.166667,41.72425 201.192417,39.75 198.75,39.75 L189.916667,39.75 L189.916667,0 L181.083333,0 L181.083333,39.75 L172.25,39.75 L172.25,0 L163.416667,0 L163.416667,39.75 L154.583333,39.75 L154.583333,0 L145.75,0 L145.75,39.75 L128.083333,39.75 C125.640917,39.75 123.666667,41.72425 123.666667,44.1666667 L123.666667,57.4166667 L72.4951667,57.4166667 L38.4559167,23.3774167 C37.63,22.5470833 36.5081667,22.0833333 35.3333333,22.0833333 L25.6873333,22.0833333 C23.8588333,16.9555833 19.0005,13.25 13.25,13.25 C5.94483333,13.25 0,19.1948333 0,26.5 C0,33.8051667 5.94483333,39.75 13.25,39.75 C19.0005,39.75 23.8588333,36.0444167 25.6873333,30.9166667 L33.5048333,30.9166667 L67.5440833,64.9559167 C68.37,65.78625 69.4918333,66.25 70.6666667,66.25 L123.666667,66.25 L123.666667,75.0833333 L92.75,75.0833333 C91.5751667,75.0833333 90.4533333,75.5470833 89.6274167,76.3774167 L82.0881667,83.9166667 L78.6873333,83.9166667 C76.8588333,78.7889167 72.0005,75.0833333 66.25,75.0833333 C58.9448333,75.0833333 53,81.0281667 53,88.3333333 C53,95.6385 58.9448333,101.583333 66.25,101.583333 C72.0005,101.583333 76.8588333,97.87775 78.6873333,92.75 L83.9166667,92.75 C85.0915,92.75 86.2133333,92.28625 87.03925,91.4559167 L94.5785,83.9166667 L123.666667,83.9166667 L123.666667,92.75 L119.25,92.75 C118.075167,92.75 116.953333,93.21375 116.127417,94.0440833 L90.9215,119.25 L74.2706667,119.25 C72.4421667,114.12225 67.5838333,110.416667 61.8333333,110.416667 C54.5281667,110.416667 48.5833333,116.3615 48.5833333,123.666667 C48.5833333,130.971833 54.5281667,136.916667 61.8333333,136.916667 C67.5838333,136.916667 72.4421667,133.211083 74.2706667,128.083333 L92.75,128.083333 C93.9248333,128.083333 95.0466667,127.619583 95.8725833,126.78925 L121.0785,101.583333 L123.666667,101.583333 L123.666667,114.833333 C123.666667,117.27575 125.640917,119.25 128.083333,119.25 L145.75,119.25 L145.75,174.838167 L133.794083,186.794083 C132.96375,187.62 132.5,188.741833 132.5,189.916667 L132.5,195.146 C127.37225,196.9745 123.666667,201.832833 123.666667,207.583333 C123.666667,214.8885 129.6115,220.833333 136.916667,220.833333 C144.221833,220.833333 150.166667,214.8885 150.166667,207.583333 C150.166667,201.832833 146.461083,196.9745 141.333333,195.146 L141.333333,191.745167 L153.28925,179.78925 C154.119583,178.963333 154.583333,177.8415 154.583333,176.666667 L154.583333,119.25 L163.416667,119.25 L163.416667,150.166667 C163.416667,151.3415 163.880417,152.463333 164.71075,153.28925 L176.666667,165.245167 L176.666667,212.812667 C171.538917,214.641167 167.833333,219.4995 167.833333,225.25 C167.833333,232.555167 173.778167,238.5 181.083333,238.5 C188.3885,238.5 194.333333,232.555167 194.333333,225.25 C194.333333,219.4995 190.62775,214.641167 185.5,212.812667 L185.5,163.416667 C185.5,162.241833 185.03625,161.12 184.205917,160.294083 L172.25,148.338167 L172.25,119.25 L181.083333,119.25 L181.083333,132.5 C181.083333,133.674833 181.547083,134.796667 182.377417,135.622583 L212,165.245167 L212,239.312667 C206.87225,241.141167 203.166667,245.9995 203.166667,251.75 C203.166667,259.055167 209.1115,265 216.416667,265 C223.721833,265 229.666667,259.055167 229.666667,251.75 C229.666667,245.9995 225.961083,241.141167 220.833333,239.312667 L220.833333,163.416667 C220.833333,162.241833 220.369583,161.12 219.53925,160.294083 L189.916667,130.6715 L189.916667,119.25 L198.75,119.25 C201.192417,119.25 203.166667,117.27575 203.166667,114.833333 L203.166667,101.583333 L265,101.583333 L265,92.75 L203.166667,92.75 L203.166667,83.9166667 L265,83.9166667 L265,75.0833333 L203.166667,75.0833333 L203.166667,66.25 L265,66.25 L265,57.4166667 L203.166667,57.4166667 L203.166667,44.1666667 Z M13.25,30.9166667 C10.812,30.9166667 8.83333333,28.938 8.83333333,26.5 C8.83333333,24.062 10.812,22.0833333 13.25,22.0833333 C15.688,22.0833333 17.6666667,24.062 17.6666667,26.5 C17.6666667,28.938 15.688,30.9166667 13.25,30.9166667 Z M66.25,92.75 C63.812,92.75 61.8333333,90.7713333 61.8333333,88.3333333 C61.8333333,85.8953333 63.812,83.9166667 66.25,83.9166667 C68.688,83.9166667 70.6666667,85.8953333 70.6666667,88.3333333 C70.6666667,90.7713333 68.688,92.75 66.25,92.75 Z M61.8333333,128.083333 C59.3953333,128.083333 57.4166667,126.104667 57.4166667,123.666667 C57.4166667,121.228667 59.3953333,119.25 61.8333333,119.25 C64.2713333,119.25 66.25,121.228667 66.25,123.666667 C66.25,126.104667 64.2713333,128.083333 61.8333333,128.083333 Z M136.916667,212 C134.478667,212 132.5,210.021333 132.5,207.583333 C132.5,205.145333 134.478667,203.166667 136.916667,203.166667 C139.354667,203.166667 141.333333,205.145333 141.333333,207.583333 C141.333333,210.021333 139.354667,212 136.916667,212 Z M181.083333,229.666667 C178.645333,229.666667 176.666667,227.688 176.666667,225.25 C176.666667,222.812 178.645333,220.833333 181.083333,220.833333 C183.521333,220.833333 185.5,222.812 185.5,225.25 C185.5,227.688 183.521333,229.666667 181.083333,229.666667 Z M216.416667,256.166667 C213.978667,256.166667 212,254.188 212,251.75 C212,249.312 213.978667,247.333333 216.416667,247.333333 C218.854667,247.333333 220.833333,249.312 220.833333,251.75 C220.833333,254.188 218.854667,256.166667 216.416667,256.166667 Z M194.333333,110.416667 L132.5,110.416667 L132.5,48.5833333 L194.333333,48.5833333 L194.333333,110.416667 Z" id="Shape"></path>
                <rect id="Rectangle-path" x="142" y="59" width="8" height="8"></rect>
                <rect id="Rectangle-path" x="157" y="59" width="8" height="8"></rect>
                <rect id="Rectangle-path" x="142" y="75" width="8" height="8"></rect>
                <rect id="Rectangle-path" x="142" y="94" width="8" height="8"></rect>
                <rect id="Rectangle-path" x="157" y="75" width="8" height="8"></rect>
                <rect id="Rectangle-path" x="157" y="94" width="8" height="8"></rect>
                <rect id="Rectangle-path" x="176" y="59" width="8" height="8"></rect>
                <rect id="Rectangle-path" x="176" y="75" width="8" height="8"></rect>
                <rect id="Rectangle-path" x="176" y="94" width="8" height="8"></rect>
            </g>
        </g>
    </g>
</svg>
