<?xml version="1.0" encoding="UTF-8"?>
<svg width="265px" height="265px" viewBox="0 0 265 265" version="1.1" xmlns="http://www.w3.org/2000/svg" xmlns:xlink="http://www.w3.org/1999/xlink">
    <!-- Generator: Sketch 48.2 (47327) - http://www.bohemiancoding.com/sketch -->
    <title>noun_1469626_cc</title>
    <desc>Created with Sketch.</desc>
    <defs></defs>
    <g id="Homepage" stroke="none" stroke-width="1" fill="none" fill-rule="evenodd" transform="translate(0.000000, -2092.000000)">
        <g id="Group-4" transform="translate(0.000000, 2092.000000)" fill="#50D3A8" fill-rule="nonzero">
            <g id="noun_1469626_cc">
                <path d="M103.038245,60.3797468 L109.35443,54.1321113 L94.6449541,39.5822785 L109.35443,25.0324456 L103.038245,18.7848101 L85.1706757,36.4584607 C83.4241208,38.1860601 83.4241208,40.9784969 85.1706757,42.7060962 L103.038245,60.3797468 Z" id="Shape"></path>
                <path d="M161.961755,60.3797468 L179.829324,42.7060962 C181.575879,40.9784969 181.575879,38.1860601 179.829324,36.4584607 L161.961755,18.7848101 L155.64557,25.0324456 L170.355046,39.5822785 L155.64557,54.1321113 L161.961755,60.3797468 Z" id="Shape"></path>
                <rect id="Rectangle-path" x="119.417722" y="53" width="26.164557" height="8.72151899"></rect>
                <rect id="Rectangle-path" x="75.1392405" y="79.164557" width="17.443038" height="8.72151899"></rect>
                <rect id="Rectangle-path" x="101.974684" y="79.164557" width="88.556962" height="8.72151899"></rect>
                <rect id="Rectangle-path" x="75.1392405" y="106" width="17.443038" height="8.72151899"></rect>
                <rect id="Rectangle-path" x="101.974684" y="106" width="88.556962" height="8.72151899"></rect>
                <rect id="Rectangle-path" x="75.1392405" y="132.164557" width="17.443038" height="8.72151899"></rect>
                <rect id="Rectangle-path" x="128.139241" y="193.886076" width="8.72151899" height="8.72151899"></rect>
                <rect id="Rectangle-path" x="145.582278" y="193.886076" width="8.72151899" height="8.72151899"></rect>
                <rect id="Rectangle-path" x="101.974684" y="132.164557" width="88.556962" height="8.72151899"></rect>
                <path d="M94.3167257,160.341772 L76.4491567,178.015423 C74.7026018,179.743022 74.7026018,182.535459 76.4491567,184.263058 L94.3167257,201.936709 L100.632911,195.689073 L85.9234352,181.139241 L100.632911,166.589408 L94.3167257,160.341772 Z" id="Shape"></path>
                <path d="M171.35416,160.341772 L165.037975,166.589408 L179.747451,181.139241 L165.037975,195.689073 L171.35416,201.936709 L189.221729,184.263058 C190.968284,182.535459 190.968284,179.743022 189.221729,178.015423 L171.35416,160.341772 Z" id="Shape"></path>
                <rect id="Rectangle-path" transform="translate(121.430380, 176.778481) rotate(-67.381457) translate(-121.430380, -176.778481) " x="92.5822785" y="172.417722" width="57.6962025" height="8.72151899"></rect>
                <path d="M235.06825,0 C234.737,0 234.414583,0.03975 234.083333,0.0485833333 L234.083333,0 L92.75,0 C92.5733333,0 92.3966667,0.00883333333 92.2244167,0.0309166667 C73.3961667,0.803833333 58.2205,15.9795 57.4475833,34.8121667 C57.4255,34.98 57.4166667,35.1566667 57.4166667,35.3333333 L57.4166667,212 L26.5,212 C11.88525,212 0,223.88525 0,238.5 C0,253.11475 11.88525,265 26.5,265 L171.265083,265 C191.630333,265 207.583333,249.479833 207.583333,229.666667 L207.583333,36.3138333 C207.583333,21.16025 219.91025,8.83333333 235.06825,8.83333333 C246.697333,8.83333333 256.166667,18.3026667 256.166667,29.9361667 C256.166667,38.75625 248.989583,45.9333333 240.1695,45.9333333 C233.5975,45.9333333 228.253333,40.5891667 228.253333,34.0171667 C228.253333,29.2471667 232.135583,25.3693333 236.905583,25.3693333 L236.905583,16.536 C227.264,16.536 219.42,24.3755833 219.42,34.0171667 C219.42,45.4563333 228.725917,54.7666667 240.1695,54.7666667 C253.861167,54.7666667 265,43.6278333 265,29.9361667 C265,13.4310833 251.573333,0 235.06825,0 Z M8.83333333,238.5 C8.83333333,228.756833 16.7568333,220.833333 26.5,220.833333 L145.864833,220.833333 C143.06025,224.5345 141.333333,229.0925 141.333333,234.083333 L141.333333,235.063833 C141.333333,243.292083 144.672333,250.751833 150.060667,256.166667 L26.5,256.166667 C16.7568333,256.166667 8.83333333,248.243167 8.83333333,238.5 Z M198.780917,34.80775 C198.758833,34.98 198.75,35.1566667 198.75,35.3333333 L198.75,229.666667 C198.75,244.524333 186.67925,256.166667 171.265083,256.166667 C159.636,256.166667 150.166667,246.697333 150.166667,235.063833 L150.166667,234.083333 C150.166667,226.778167 156.1115,220.833333 163.416667,220.833333 C170.721833,220.833333 176.666667,226.778167 176.666667,234.083333 L185.5,234.083333 C185.5,221.906583 175.593417,212 163.416667,212 L66.25,212 L66.25,36.3138333 C66.25,21.16025 78.5769167,8.83333333 93.7349167,8.83333333 L211.412583,8.83333333 C204.032333,15.1933333 199.204917,24.433 198.780917,34.80775 Z" id="Shape"></path>
            </g>
        </g>
    </g>
</svg>