<?xml version="1.0" encoding="UTF-8"?>
<svg width="16px" height="16px" viewBox="0 0 16 16" version="1.1" xmlns="http://www.w3.org/2000/svg" xmlns:xlink="http://www.w3.org/1999/xlink">
    <title>Georg Obermayr on Twitter</title>
    <defs></defs>
    <g id="Welcome" stroke="none" stroke-width="1" fill="none" fill-rule="evenodd">
        <g id="Article" transform="translate(-566.000000, -160.000000)" fill="#FFFFFF" fill-rule="nonzero">
            <g id="Twitter" transform="translate(566.000000, 160.000000)">
                <path d="M8,0 C3.582,0 0,3.58166667 0,8 C0,12.4183333 3.58166667,16 8,16 C12.4186667,16 16,12.4183333 16,8 C16,3.58166667 12.4186667,0 8,0 Z M12.0866667,5.206 C12.0983333,5.19266667 12.1086667,5.175 12.125,5.17166667 C12.125,5.17166667 12.1223333,5.177 12.0976667,5.223 C12.11,5.24366667 12.1223333,5.264 12.134,5.285 C12.5713333,5.36966667 12.8956667,5.479 12.8956667,5.55 C12.8956667,5.606 12.6973333,5.71466667 12.4026667,5.83133333 C12.527,6.132 12.629,6.45733333 12.7006667,6.80233333 C12.9226667,7.869 12.8106667,8.882 12.4576667,9.595 C11.8606667,11.565 10.0323333,13.0003333 7.86633333,13.0003333 C5.83133333,13.0003333 4.09633333,11.731 3.399,9.943 C4.19533333,10.532 5.177,10.8833333 6.24333333,10.8833333 C6.838,10.8833333 7.405,10.77 7.93066667,10.5713333 C7.359,10.6116667 6.77033333,10.5363333 6.199,10.3193333 C4.274,9.59 3.91566667,7.28766667 3.91566667,7.28766667 C3.77233333,6.367 3.979,6.30433333 4.37466667,7.14766667 C4.37466667,7.14766667 4.84366667,8.14633333 6.22066667,8.668 C6.257,8.682 6.29433333,8.691 6.33133333,8.70266667 C6.308,8.69166667 6.28366667,8.682 6.26033333,8.66933333 C4.44433333,7.70133333 4.38266667,5.371 4.38266667,5.371 C4.358,4.44 4.571,4.404 4.856,5.29033333 C4.856,5.29033333 5.19366667,6.341 6.49266667,7.03366667 C7.145,7.382 7.84866667,7.53166667 8.53833333,7.51066667 C8.21666667,5.72033333 8.82433333,4.11333333 9.93566667,3.88133333 C10.4356667,3.77733333 10.954,3.96966667 11.411,4.37333333 C11.543,4.35666667 11.6896667,4.35733333 11.845,4.38033333 C12.422,4.467 12.8946667,4.609 12.8946667,4.69533333 C12.8946667,4.77266667 12.5176667,4.95 12.0266667,5.11066667 C12.0476667,5.144 12.067,5.17366667 12.0866667,5.206 Z" id="Shape"></path>
            </g>
        </g>
    </g>
</svg>
