<?xml version="1.0" encoding="UTF-8"?>
<svg width="265px" height="265px" viewBox="0 0 265 265" version="1.1" xmlns="http://www.w3.org/2000/svg" xmlns:xlink="http://www.w3.org/1999/xlink">
    <!-- Generator: Sketch 48.2 (47327) - http://www.bohemiancoding.com/sketch -->
    <title>noun_1469610_cc</title>
    <desc>Created with Sketch.</desc>
    <defs></defs>
    <g id="Homepage" stroke="none" stroke-width="1" fill="none" fill-rule="evenodd" transform="translate(0.000000, -3327.000000)">
        <g id="Group-3" transform="translate(0.000000, 3327.000000)" fill="#50D3A8" fill-rule="nonzero">
            <g id="noun_1469610_cc">
                <path d="M251.75,26.4735265 C259.055167,26.4735265 265,20.534632 265,13.2367632 C265,5.93889444 259.055167,0 251.75,0 C245.9995,0 241.141167,3.70188145 239.312667,8.82450882 L145.75,8.82450882 L145.75,4.41225441 C145.75,1.97227772 143.771333,0 141.333333,0 L123.666667,0 C121.228667,0 119.25,1.97227772 119.25,4.41225441 L119.25,8.82450882 L25.6873333,8.82450882 C23.8588333,3.70188145 19.0005,0 13.25,0 C5.94483333,0 0,5.93889444 0,13.2367632 C0,20.534632 5.94483333,26.4735265 13.25,26.4735265 C19.0005,26.4735265 23.8588333,22.771645 25.6873333,17.6490176 L86.8935,17.6490176 C45.2664167,34.3273393 14.5440833,73.1066434 9.60183333,119.130869 L4.41666667,119.130869 C1.97866667,119.130869 0,121.103147 0,123.543124 L0,141.192141 C0,143.632118 1.97866667,145.604396 4.41666667,145.604396 L22.0833333,145.604396 C24.5213333,145.604396 26.5,143.632118 26.5,141.192141 L26.5,123.543124 C26.5,121.103147 24.5213333,119.130869 22.0833333,119.130869 L18.5853333,119.130869 C24.6759167,66.6912254 66.7579167,24.6468531 119.25,18.5667666 L119.25,22.0612721 C119.25,24.5012488 121.228667,26.4735265 123.666667,26.4735265 L141.333333,26.4735265 C143.771333,26.4735265 145.75,24.5012488 145.75,22.0612721 L145.75,18.5667666 C198.242083,24.6468531 240.324083,66.6912254 246.414667,119.130869 L242.916667,119.130869 C240.478667,119.130869 238.5,121.103147 238.5,123.543124 L238.5,141.192141 C238.5,143.632118 240.478667,145.604396 242.916667,145.604396 L260.583333,145.604396 C263.021333,145.604396 265,143.632118 265,141.192141 L265,123.543124 C265,121.103147 263.021333,119.130869 260.583333,119.130869 L255.398167,119.130869 C250.4515,73.1066434 219.729167,34.3273393 178.1065,17.6490176 L239.312667,17.6490176 C241.141167,22.771645 245.9995,26.4735265 251.75,26.4735265 Z M251.75,8.82450882 C254.183583,8.82450882 256.166667,10.8011988 256.166667,13.2367632 C256.166667,15.6723277 254.183583,17.6490176 251.75,17.6490176 C249.316417,17.6490176 247.333333,15.6723277 247.333333,13.2367632 C247.333333,10.8011988 249.316417,8.82450882 251.75,8.82450882 Z M13.25,17.6490176 C10.8164167,17.6490176 8.83333333,15.6723277 8.83333333,13.2367632 C8.83333333,10.8011988 10.8164167,8.82450882 13.25,8.82450882 C15.6835833,8.82450882 17.6666667,10.8011988 17.6666667,13.2367632 C17.6666667,15.6723277 15.6835833,17.6490176 13.25,17.6490176 Z M17.6666667,136.779887 L8.83333333,136.779887 L8.83333333,127.955378 L17.6666667,127.955378 L17.6666667,136.779887 Z M136.916667,17.6490176 L128.083333,17.6490176 L128.083333,8.82450882 L136.916667,8.82450882 L136.916667,17.6490176 Z M247.333333,127.955378 L256.166667,127.955378 L256.166667,136.779887 L247.333333,136.779887 L247.333333,127.955378 Z" id="Shape"></path>
                <path d="M179.951388,85.5748977 L135.686113,37.0494355 C134.008459,35.2142907 130.812506,35.2142907 129.139279,37.0494355 L84.8740038,85.5748977 C83.4265294,87.1630038 83.3335723,89.558397 84.6526775,91.2523768 L114.394516,129.36251 L110.366376,149.434406 C110.251286,150.007889 110.251286,150.594606 110.366376,151.168088 L113.752669,168.046126 C106.878272,168.540204 101.42479,174.20886 101.42479,181.183293 C101.42479,184.584486 102.757175,187.659236 104.877482,190.006104 C102.752748,192.352972 101.42479,195.427721 101.42479,198.828915 C101.42479,202.230109 102.757175,205.304859 104.877482,207.651726 C102.752748,209.998594 101.42479,213.073344 101.42479,216.474538 C101.42479,219.875732 102.757175,222.950481 104.877482,225.297349 C102.752748,227.644217 101.42479,230.718967 101.42479,234.12016 C101.42479,241.416625 107.382896,247.354377 114.704373,247.354377 L114.704373,265 L123.557428,265 L123.557428,247.354377 L150.116593,247.354377 C157.438069,247.354377 163.396176,241.416625 163.396176,234.12016 C163.396176,230.718967 162.063791,227.644217 159.943484,225.297349 C162.068217,222.950481 163.396176,219.875732 163.396176,216.474538 C163.396176,213.073344 162.063791,209.998594 159.943484,207.651726 C162.068217,205.304859 163.396176,202.230109 163.396176,198.828915 C163.396176,195.427721 162.063791,192.352972 159.943484,190.006104 C162.068217,187.659236 163.396176,184.584486 163.396176,181.183293 C163.396176,179.630478 163.077466,178.157068 162.581694,176.771887 L167.822703,176.771887 C170.266146,176.771887 172.249231,174.799989 172.249231,172.360481 L172.249231,154.714859 C172.249231,146.509644 177.901906,139.588149 185.528813,137.629484 L185.528813,265 L194.381868,265 L194.381868,132.65783 C194.381868,130.218323 192.398784,128.246425 189.955341,128.246425 C175.307961,128.246425 163.396176,140.117517 163.396176,154.714859 L163.396176,167.949076 L151.090429,167.949076 L154.459016,151.168088 C154.574106,150.594606 154.574106,150.007889 154.459016,149.434406 L150.430876,129.36251 L180.172715,91.2523768 C181.49182,89.558397 181.398863,87.1674152 179.951388,85.5748977 Z M132.410483,88.5437737 C134.8495,88.5437737 136.83701,90.5200835 136.83701,92.9551794 C136.83701,95.3902753 134.8495,97.366585 132.410483,97.366585 C129.971466,97.366585 127.983955,95.3902753 127.983955,92.9551794 C127.983955,90.5200835 129.971466,88.5437737 132.410483,88.5437737 Z M150.116593,238.531566 L114.704373,238.531566 C112.265356,238.531566 110.277845,236.555256 110.277845,234.12016 C110.277845,231.685064 112.265356,229.708755 114.704373,229.708755 L150.116593,229.708755 C152.55561,229.708755 154.54312,231.685064 154.54312,234.12016 C154.54312,236.555256 152.55561,238.531566 150.116593,238.531566 Z M150.116593,220.885943 L114.704373,220.885943 C112.265356,220.885943 110.277845,218.909634 110.277845,216.474538 C110.277845,214.039442 112.265356,212.063132 114.704373,212.063132 L150.116593,212.063132 C152.55561,212.063132 154.54312,214.039442 154.54312,216.474538 C154.54312,218.909634 152.55561,220.885943 150.116593,220.885943 Z M150.116593,203.240321 L114.704373,203.240321 C112.265356,203.240321 110.277845,201.264011 110.277845,198.828915 C110.277845,196.393819 112.265356,194.417509 114.704373,194.417509 L150.116593,194.417509 C152.55561,194.417509 154.54312,196.393819 154.54312,198.828915 C154.54312,201.264011 152.55561,203.240321 150.116593,203.240321 Z M154.54312,181.183293 C154.54312,183.618388 152.55561,185.594698 150.116593,185.594698 L114.704373,185.594698 C112.265356,185.594698 110.277845,183.618388 110.277845,181.183293 C110.277845,178.748197 112.265356,176.771887 114.704373,176.771887 L150.116593,176.771887 C152.55561,176.771887 154.54312,178.748197 154.54312,181.183293 Z M119.219431,150.303453 L122.760653,132.65783 L142.060313,132.65783 L145.601535,150.303453 L142.060313,167.949076 L122.760653,167.949076 L119.219431,150.303453 Z M143.521067,123.835019 L121.299899,123.835019 L93.9262526,88.764344 L127.983955,51.4262065 L127.983955,80.532661 C122.844757,82.358983 119.1309,87.2115292 119.1309,92.9551794 C119.1309,100.251644 125.089006,106.189396 132.410483,106.189396 C139.731959,106.189396 145.690065,100.251644 145.690065,92.9551794 C145.690065,87.2115292 141.976209,82.358983 136.83701,80.532661 L136.83701,51.4262065 L170.894713,88.764344 L143.521067,123.835019 Z" id="Shape"></path>
                <rect id="Rectangle-path" x="53.1456044" y="203.118132" width="8.73626374" height="8.73626374"></rect>
                <rect id="Rectangle-path" x="35.6730769" y="220.590659" width="8.73626374" height="8.73626374"></rect>
                <rect id="Rectangle-path" x="35.6730769" y="203.118132" width="8.73626374" height="8.73626374"></rect>
                <rect id="Rectangle-path" x="35.6730769" y="185.645604" width="8.73626374" height="8.73626374"></rect>
                <rect id="Rectangle-path" x="203.118132" y="203.118132" width="8.73626374" height="8.73626374"></rect>
                <rect id="Rectangle-path" x="220.590659" y="185.645604" width="8.73626374" height="8.73626374"></rect>
                <rect id="Rectangle-path" x="220.590659" y="203.118132" width="8.73626374" height="8.73626374"></rect>
                <rect id="Rectangle-path" x="220.590659" y="220.590659" width="8.73626374" height="8.73626374"></rect>
            </g>
        </g>
    </g>
</svg>