<?xml version="1.0" encoding="UTF-8"?>
<svg width="100%" height="100%" viewBox="0 0 265 267" version="1.1" xmlns="http://www.w3.org/2000/svg" xmlns:xlink="http://www.w3.org/1999/xlink">
    <!-- Generator: Sketch 48.2 (47327) - http://www.bohemiancoding.com/sketch -->
    <title>Agile Publishing</title>
    <desc>Created with Sketch.</desc>
    <defs></defs>
    <g id="Homepage" stroke="none" stroke-width="1" fill="none" fill-rule="evenodd" transform="translate(0.000000, -4631.000000)">
        <g id="Group-2" transform="translate(0.000000, 4631.000000)" fill="#50D3A8" fill-rule="nonzero">
            <g id="noun_1454984_cc">
                <path d="M123.558282,195.583535 L123.558282,15.7661578 C123.558282,13.3408161 121.585762,11.3803681 119.145486,11.3803681 L48.5407537,11.3803681 C47.36695,11.3803681 46.2460999,11.840876 45.4209071,12.6654045 L1.29294917,56.5233015 C0.463343558,57.3434441 0,58.4574347 0,59.6240548 L0,195.583535 C0,198.008877 1.97251972,199.969325 4.41279579,199.969325 L119.145486,199.969325 C121.585762,199.969325 123.558282,198.008877 123.558282,195.583535 Z M44.1279579,26.3534541 L44.1279579,55.2382651 L15.0652848,55.2382651 L44.1279579,26.3534541 Z M114.732691,191.197746 L8.82559159,191.197746 L8.82559159,64.0098445 L48.5407537,64.0098445 C50.9810298,64.0098445 52.9535495,62.0493965 52.9535495,59.6240548 L52.9535495,20.1519475 L114.732691,20.1519475 L114.732691,191.197746 Z" id="Shape"></path>
                <path d="M53.1096856,78.0368098 C51.4256529,78.0368098 49.888251,78.9706845 49.1328801,80.4500468 L31.3594475,115.361251 C30.670727,116.71406 30.7418208,118.319976 31.5549553,119.607326 C32.3680898,120.894677 33.7944078,121.675815 35.3362531,121.675815 L52.0121761,121.675815 L44.3296099,155.640053 C43.8852741,157.603809 44.8672563,159.615567 46.7068065,160.501438 C47.33332,160.806912 48.0042671,160.95092 48.6663275,160.95092 C49.950458,160.95092 51.2123717,160.401069 52.0832699,159.38428 L96.5168512,107.017473 C97.618804,105.712667 97.8587453,103.901648 97.1255912,102.374283 C96.3924371,100.83819 94.8239317,99.8563126 93.0999088,99.8563126 L84.5731045,99.8563126 L96.5701715,85.1281482 C97.6365774,83.8146141 97.8409719,82.021051 97.1033744,80.5067775 C96.3613336,79.0012318 94.8106016,78.0368098 93.0999088,78.0368098 L53.1096856,78.0368098 Z M71.3230106,106.114146 C72.0650514,107.619692 73.6157834,108.584114 75.3264762,108.584114 L83.6133392,108.584114 L56.9754072,139.97365 L61.8897613,118.254517 C62.1785795,116.962803 61.8586578,115.614357 61.0188631,114.575749 C60.174625,113.550232 58.9038246,112.948014 57.5530437,112.948014 L42.5256065,112.948014 L55.8556809,86.7646109 L83.8532805,86.7646109 L71.8562135,101.492775 C70.7898076,102.806309 70.5854131,104.599872 71.3230106,106.114146 Z" id="Shape"></path>
                <path d="M136.90298,18.6685148 C136.214205,20.2832291 136.596364,22.1397188 137.867264,23.3745003 L155.642091,40.6441718 L161.925492,34.5393429 L151.736073,24.6395038 L194.333445,24.6395038 L194.333445,33.2743395 L203.220859,33.2743395 L203.220859,20.3220859 C203.220859,17.9345538 201.234522,16.004668 198.777152,16.004668 L151.736073,16.004668 L161.925492,6.10482886 L155.642091,0 L137.867264,17.2696715 L137.893926,17.295576 C137.489549,17.6927784 137.129609,18.133155 136.90298,18.6685148 Z" id="Shape"></path>
                <path d="M143.761931,219.91375 L137.565125,226.197401 L147.614119,236.387225 L70.544073,236.387225 L70.544073,209.723926 L61.7791411,209.723926 L61.7791411,240.831108 C61.7791411,243.288576 63.7381034,245.274991 66.161607,245.274991 L147.614119,245.274991 L137.565125,255.464816 L143.761931,261.748466 L161.291795,243.972934 L161.2655,243.94627 C161.664305,243.541877 162.019285,243.084157 162.24279,242.533116 C162.922073,240.871103 162.54518,238.960234 161.291795,237.689283 L143.761931,219.91375 Z" id="Shape"></path>
                <path d="M195.980125,42.3464011 C163.307294,43.8904856 136.477206,69.6252264 133.575588,102.218166 C131.424616,126.395625 142.600893,149.750452 162.749797,163.16771 C166.305486,165.534426 168.42573,169.5772 168.42573,173.989498 L168.42573,183.042848 C168.42573,187.727891 170.892764,191.827853 174.575755,194.168174 C173.4871,196.090582 172.81547,198.276935 172.81547,200.639252 C172.81547,204.030959 174.136781,207.097132 176.239467,209.437454 C174.132392,211.777776 172.81547,214.843949 172.81547,218.235656 C172.81547,221.627363 174.136781,224.693536 176.239467,227.033858 C174.132392,229.37418 172.81547,232.440353 172.81547,235.83206 C172.81547,243.108173 178.724059,249.029363 185.984688,249.029363 L185.984688,253.428464 C185.984688,260.704577 191.893278,266.625767 199.153907,266.625767 C206.414536,266.625767 212.323126,260.704577 212.323126,253.428464 L212.323126,249.029363 C219.583755,249.029363 225.492344,243.108173 225.492344,235.83206 C225.492344,232.440353 224.171033,229.37418 222.068347,227.033858 C224.175422,224.693536 225.492344,221.627363 225.492344,218.235656 C225.492344,214.843949 224.171033,211.777776 222.068347,209.437454 C224.175422,207.097132 225.492344,204.030959 225.492344,200.639252 C225.492344,198.276935 224.820714,196.090582 223.732059,194.168174 C227.41505,191.827853 229.882084,187.727891 229.882084,183.042848 L229.882084,173.989498 C229.882084,169.581599 232.019887,165.525628 235.610694,163.132517 C254.012482,150.854626 265,130.341618 265,108.258131 C265,90.041454 257.75693,73.0873188 244.60088,60.5102891 C231.449221,47.9376585 214.136088,41.4841773 195.980125,42.3464011 Z M185.984688,117.056333 L177.810993,117.056333 C173.351018,117.056333 169.400252,114.069344 168.610099,110.110153 C168.013095,107.092369 168.882263,104.15377 171.002507,102.033403 C172.674998,100.357346 174.869868,99.4599293 177.20082,99.4599293 C177.810993,99.4599293 178.425557,99.5259158 179.05329,99.6446915 C183.004055,100.43653 185.984688,104.395721 185.984688,108.865207 L185.984688,117.056333 Z M216.712865,200.639252 C216.712865,203.067556 214.746262,205.038353 212.323126,205.038353 L185.984688,205.038353 C183.561552,205.038353 181.594949,203.067556 181.594949,200.639252 C181.594949,198.210948 183.561552,196.240151 185.984688,196.240151 L190.374428,196.240151 L207.933386,196.240151 L212.323126,196.240151 C214.746262,196.240151 216.712865,198.210948 216.712865,200.639252 Z M216.712865,218.235656 C216.712865,220.66396 214.746262,222.634757 212.323126,222.634757 L185.984688,222.634757 C183.561552,222.634757 181.594949,220.66396 181.594949,218.235656 C181.594949,215.807352 183.561552,213.836555 185.984688,213.836555 L212.323126,213.836555 C214.746262,213.836555 216.712865,215.807352 216.712865,218.235656 Z M203.543647,187.441949 L194.764167,187.441949 L194.764167,125.854535 L203.543647,125.854535 L203.543647,187.441949 Z M203.543647,253.428464 C203.543647,255.856768 201.577043,257.827565 199.153907,257.827565 C196.730771,257.827565 194.764167,255.856768 194.764167,253.428464 L194.764167,249.029363 L203.543647,249.029363 L203.543647,253.428464 Z M212.323126,240.231161 L207.933386,240.231161 L190.374428,240.231161 L185.984688,240.231161 C183.561552,240.231161 181.594949,238.260364 181.594949,235.83206 C181.594949,233.403756 183.561552,231.432959 185.984688,231.432959 L212.323126,231.432959 C214.746262,231.432959 216.712865,233.403756 216.712865,235.83206 C216.712865,238.260364 214.746262,240.231161 212.323126,240.231161 Z M230.742473,155.812413 C224.706581,159.83759 221.102605,166.634201 221.102605,173.989498 L221.102605,183.042848 C221.102605,185.471152 219.136001,187.441949 216.712865,187.441949 L212.323126,187.441949 L212.323126,125.854535 L221.102605,125.854535 C226.304446,125.854535 231.207785,123.562604 234.552767,119.56822 C237.897748,115.573836 239.293685,110.303713 238.385009,105.103976 C237.138323,98.012625 231.326308,92.1838162 224.245658,90.9344716 C219.039427,90.0326558 213.793688,91.4227718 209.812195,94.7748867 C205.830701,98.1314008 203.543647,103.045197 203.543647,108.258131 L203.543647,117.056333 L194.764167,117.056333 L194.764167,108.865207 C194.764167,100.14179 188.873137,92.6369236 180.765288,91.0180545 C174.904986,89.8302972 168.952499,91.651525 164.795416,95.8130745 C160.633943,99.9790232 158.842929,105.9662 160.00182,111.821403 C161.612854,119.955341 169.10175,125.854535 177.810993,125.854535 L185.984688,125.854535 L185.984688,187.441949 L181.594949,187.441949 C179.171813,187.441949 177.205209,185.471152 177.205209,183.042848 L177.205209,173.989498 C177.205209,166.625403 173.618792,159.841989 167.609239,155.838808 C150.142465,144.203185 140.44992,123.958523 142.319949,102.996806 C144.83088,74.7633763 168.078941,52.4687325 196.388371,51.1314058 C197.323386,51.0918139 198.25401,51.0698184 199.180245,51.0698184 C213.92977,51.0698184 227.818906,56.6258829 238.54304,66.8757882 C249.938804,77.7723614 256.220521,92.4697578 256.220521,108.258131 C256.220521,127.389821 246.694786,145.166589 230.742473,155.812413 Z M212.323126,117.056333 L212.323126,108.258131 C212.323126,105.649464 213.468848,103.194766 215.461789,101.518709 C217.485459,99.8118573 220.062236,99.1255976 222.731198,99.6050996 C226.181533,100.212176 229.131438,103.168371 229.737222,106.626065 C230.206924,109.296319 229.530905,111.88299 227.827686,113.910976 C226.155195,115.908168 223.70572,117.056333 221.102605,117.056333 L212.323126,117.056333 Z" id="Shape"></path>
            </g>
        </g>
    </g>
</svg>
